HIERARCHY
ROOT Hips
{
	OFFSET -0.001795 -0.223333 0.028219
	CHANNELS 6 Xposition Yposition Zposition Zrotation Yrotation Xrotation 
	JOINT LeftUpLeg
	{
		OFFSET 0.069520 -0.091406 -0.006815
		CHANNELS 3 Zrotation Yrotation Xrotation
		JOINT LeftLeg
		{
			OFFSET 0.034277 -0.375199 -0.004496
			CHANNELS 3 Zrotation Yrotation Xrotation
			JOINT LeftFoot
			{
				OFFSET -0.013596 -0.397961 -0.043693
				CHANNELS 3 Zrotation Yrotation Xrotation
				JOINT LeftToe
				{
					OFFSET 0.026358 -0.055791 0.119288
					CHANNELS 3 Zrotation Yrotation Xrotation
					End Site
					{
						OFFSET 0.000000 0.000000 0.000000
					}
				}
			}
		}
	}
	JOINT RightUpLeg
	{
		OFFSET -0.067670 -0.090522 -0.004320
		CHANNELS 3 Zrotation Yrotation Xrotation
		JOINT RightLeg
		{
			OFFSET -0.038290 -0.382569 -0.008850
			CHANNELS 3 Zrotation Yrotation Xrotation
			JOINT RightFoot
			{
				OFFSET 0.015774 -0.398415 -0.042312
				CHANNELS 3 Zrotation Yrotation Xrotation
				JOINT RightToe
				{
					OFFSET -0.025372 -0.048144 0.123348
					CHANNELS 3 Zrotation Yrotation Xrotation
					End Site
					{
						OFFSET 0.000000 0.000000 0.000000
					}
				}
			}
		}
	}
	JOINT Spine
	{
		OFFSET -0.002533 0.108963 -0.026696
		CHANNELS 3 Zrotation Yrotation Xrotation
		JOINT Spine1
		{
			OFFSET 0.005487 0.135180 0.001092
			CHANNELS 3 Zrotation Yrotation Xrotation
			JOINT Spine2
			{
				OFFSET 0.001457 0.052922 0.025425
				CHANNELS 3 Zrotation Yrotation Xrotation
				JOINT Neck
				{
					OFFSET -0.002778 0.213870 -0.042857
					CHANNELS 3 Zrotation Yrotation Xrotation
					JOINT Head
					{
						OFFSET 0.005152 0.064970 0.051349
						CHANNELS 3 Zrotation Yrotation Xrotation
						End Site
						{
							OFFSET 0.000000 0.000000 0.000000
						}
					}
				}
				JOINT LeftShoulder
				{
					OFFSET 0.078845 0.121749 -0.034090
					CHANNELS 3 Zrotation Yrotation Xrotation
					JOINT LeftArm
					{
						OFFSET 0.090977 0.030469 -0.008868
						CHANNELS 3 Zrotation Yrotation Xrotation
						JOINT LeftForeArm
						{
							OFFSET 0.259612 -0.012772 -0.027456
							CHANNELS 3 Zrotation Yrotation Xrotation
							JOINT LeftHand
							{
								OFFSET 0.249234 0.008986 -0.001171
								CHANNELS 3 Zrotation Yrotation Xrotation
								End Site
								{
									OFFSET 0.000000 0.000000 0.000000
								}
							}
						}
					}
				}
				JOINT RightShoulder
				{
					OFFSET -0.081759 0.118833 -0.038615
					CHANNELS 3 Zrotation Yrotation Xrotation
					JOINT RightArm
					{
						OFFSET -0.096012 0.032551 -0.009143
						CHANNELS 3 Zrotation Yrotation Xrotation
						JOINT RightForeArm
						{
							OFFSET -0.253742 -0.013329 -0.021401
							CHANNELS 3 Zrotation Yrotation Xrotation
							JOINT RightHand
							{
								OFFSET -0.255298 0.007772 -0.005559
								CHANNELS 3 Zrotation Yrotation Xrotation
								End Site
								{
									OFFSET 0.000000 0.000000 0.000000
								}
							}
						}
					}
				}
			}
		}
	}
}
MOTION
Frames: 14
Frame Time: 0.050000
-0.209060 0.825650 1.002547 2.858367 -13.033427 3.538283 1.762280 -0.898088 -46.964180 0.945539 1.525006 69.652623 6.541567 12.535359 -5.240530 0.000000 0.000000 0.000000 -1.562298 -0.270640 5.409497 3.495852 1.945568 36.260779 -5.858055 -11.206431 -6.809343 0.000000 0.000000 0.000000 -5.468107 1.318932 27.504357 8.484714 -1.496515 -24.913076 3.807650 14.573777 26.096944 -1.218249 3.801886 -30.484521 0.000000 0.000000 0.000000 -34.283114 7.202363 -11.183288 -31.428463 15.991073 -7.840982 -54.451102 -48.090163 27.204434 0.000000 0.000000 0.000000 24.300431 10.876011 7.539365 34.677077 22.341120 -0.089323 -9.014292 64.410087 -0.891139 0.000000 0.000000 0.000000 
-0.232577 0.842400 1.131211 5.615449 -12.334321 3.656276 1.487079 -1.020979 -52.704429 -6.377519 3.995441 44.705310 5.157922 11.611390 9.571364 0.000000 0.000000 0.000000 -3.846266 -0.306645 19.211048 1.186217 1.138448 21.589928 -1.942531 -8.861750 9.988517 0.000000 0.000000 0.000000 -9.648578 2.004264 22.533699 6.595697 -1.327570 -22.035881 6.117914 19.336371 24.071614 -1.388176 4.476711 -25.947287 0.000000 0.000000 0.000000 -30.407157 10.319545 -14.129559 -26.055686 23.602830 -7.306275 -61.866587 -44.016758 27.293365 0.000000 0.000000 0.000000 19.908226 8.104226 6.505017 38.823213 24.102300 1.033968 -13.811343 79.393414 -2.718382 0.000000 0.000000 0.000000 
-0.259009 0.855829 1.269002 6.808641 -9.983432 4.890729 0.847175 -1.996526 -48.528912 -10.278729 4.311942 32.383750 3.992530 10.616739 15.165551 0.000000 0.000000 0.000000 -2.527143 -0.882349 24.155315 -2.141010 1.814461 20.220662 4.060378 -5.038429 27.508049 0.000000 0.000000 0.000000 -12.869166 2.360367 19.409035 3.948185 -0.553016 -22.804022 9.770741 18.992316 22.437986 -1.224505 4.313891 -24.821111 0.000000 0.000000 0.000000 -27.852803 12.078932 -14.563019 -25.593716 28.777874 -8.076743 -62.919249 -45.561097 28.630999 0.000000 0.000000 0.000000 18.246377 5.436924 4.896299 42.353394 18.203140 -0.309536 97.107587 84.078592 102.709961 0.000000 0.000000 0.000000 
-0.285907 0.852337 1.403412 6.680029 -7.369920 4.434520 -2.697729 -3.705324 -41.663933 -7.528083 3.206294 36.076129 4.628654 10.003311 2.320318 0.000000 0.000000 0.000000 -2.692833 -1.055654 23.392316 1.897362 1.355902 32.160358 2.051548 -8.398129 32.188291 0.000000 0.000000 0.000000 -15.447669 2.501414 17.402863 7.062463 -1.423160 -20.925750 7.216107 17.667847 21.958385 0.007651 3.780178 -26.417170 0.000000 0.000000 0.000000 -28.445313 12.134080 -14.941572 -32.087930 26.838434 -10.055722 -55.658451 -48.613151 26.824076 0.000000 0.000000 0.000000 17.515101 5.766764 5.081026 46.176608 16.236582 -0.765761 83.845079 78.930629 84.577473 0.000000 0.000000 0.000000 
-0.313478 0.838147 1.526715 6.490389 -7.904390 3.191720 -4.582690 -3.687490 -34.068638 -4.422253 2.323628 41.677720 6.529674 12.070827 -13.090898 0.000000 0.000000 0.000000 -6.192369 -0.057143 15.825274 8.542017 -0.766190 50.280748 -3.718987 -14.242371 24.001664 0.000000 0.000000 0.000000 -16.395212 3.019655 19.900585 7.862045 -1.618090 -21.304532 4.653459 15.480372 22.597675 1.880923 2.791140 -32.192332 0.000000 0.000000 0.000000 -32.649975 7.941274 -12.979213 -37.280608 15.872149 -8.826737 -40.262194 -55.084097 22.594945 0.000000 0.000000 0.000000 18.033340 5.111467 4.277312 49.205924 15.053463 -1.097129 51.316613 73.937906 48.874258 0.000000 0.000000 0.000000 
-0.343601 0.828130 1.645800 4.911196 -9.726270 3.745648 -5.812318 -2.911816 -24.030764 0.993641 -0.075716 40.992675 7.570152 15.241591 -26.538354 0.000000 0.000000 0.000000 -7.315291 0.380955 1.616090 14.894508 -4.246675 66.591264 -10.363498 -23.480909 16.940140 0.000000 0.000000 0.000000 -13.650939 2.553424 20.242399 6.997143 -1.559747 -20.050650 1.703523 9.611743 22.372130 1.126366 2.164562 -34.255972 0.000000 0.000000 0.000000 -31.236507 7.162490 -9.093623 -41.278105 3.512737 -6.977779 -23.311682 -60.002451 16.217650 0.000000 0.000000 0.000000 19.450879 8.936117 4.878554 49.220478 14.316421 -1.226612 25.501997 70.489055 23.740013 0.000000 0.000000 0.000000 
-0.379181 0.841638 1.776158 2.546598 -12.014475 4.100046 -5.044907 -1.666675 -13.634528 3.872541 -1.059011 38.931866 8.265743 18.981631 -18.010611 0.000000 0.000000 0.000000 -5.312260 0.847029 -9.456273 18.568233 -6.330024 72.100299 -13.767269 -29.310230 14.061297 0.000000 0.000000 0.000000 -9.702261 1.669461 19.555903 8.646257 -1.467723 -25.017280 -0.734062 8.212907 27.292737 2.096419 1.127962 -33.246271 0.000000 0.000000 0.000000 -29.521705 5.523020 -6.124676 -39.232208 -5.080623 -5.094305 -14.182551 -62.605570 12.363106 0.000000 0.000000 0.000000 21.881360 9.965706 5.021680 44.677799 13.290038 -2.199727 22.719092 69.949349 20.671230 0.000000 0.000000 0.000000 
-0.419523 0.873317 1.923503 -0.095004 -16.765951 1.672421 -2.524822 -1.067989 -10.124895 2.441530 1.265458 46.517791 10.448541 19.646605 19.657603 0.000000 0.000000 0.000000 -3.291711 0.818226 -8.508637 16.786500 -2.375844 64.874993 -13.145113 -29.437064 7.555401 0.000000 0.000000 0.000000 -5.600150 0.801471 18.510011 9.407508 -1.565930 -26.208012 -1.296400 9.980704 28.690331 -0.193166 1.768003 -23.470794 0.000000 0.000000 0.000000 -26.112816 6.474746 -5.546249 -38.539433 -2.952843 -5.948265 -18.045064 -64.538455 15.593576 0.000000 0.000000 0.000000 20.005847 12.821544 6.093671 43.839024 15.243052 -1.605028 17.242237 67.512824 15.535507 0.000000 0.000000 0.000000 
-0.463583 0.901167 2.076897 -0.763309 -19.243564 0.609946 -0.294258 -1.190702 -19.384227 0.659516 3.643004 52.149763 9.906815 18.393871 34.867766 0.000000 0.000000 0.000000 -1.979343 0.318593 -2.695219 10.872785 1.465467 52.598233 -11.897113 -26.873548 3.473069 0.000000 0.000000 0.000000 -5.226476 0.590407 15.889004 10.543227 -2.704187 -20.417648 -0.602503 14.913017 23.110442 -0.186463 2.121196 -17.298585 0.000000 0.000000 0.000000 -23.500006 7.256384 -6.948919 -36.229774 1.679044 -6.016347 -30.331935 -60.428741 20.503496 0.000000 0.000000 0.000000 17.117523 13.759919 7.080466 42.688928 16.551395 -0.773507 14.103810 64.990642 13.231957 0.000000 0.000000 0.000000 
-0.511127 0.911488 2.230145 0.302410 -20.332533 -2.608074 1.739387 -0.659622 -24.923971 -6.056825 4.514804 33.562740 21.874031 31.473544 24.325351 0.000000 0.000000 0.000000 -1.767481 0.090565 0.429622 6.937523 3.656490 50.256542 -9.783672 -22.199135 0.514268 0.000000 0.000000 0.000000 -8.224419 1.171348 16.672614 10.700312 -2.758350 -21.246339 2.100996 17.114185 25.595018 -2.426629 3.918037 -15.217510 0.000000 0.000000 0.000000 -26.313367 7.403052 -8.058887 -31.986500 2.509564 -5.450412 -35.872412 -65.116277 25.708925 0.000000 0.000000 0.000000 18.249109 11.767726 6.533191 41.960498 14.959261 -1.704754 15.605330 66.200622 15.044555 0.000000 0.000000 0.000000 
-0.561517 0.895240 2.384263 0.992944 -17.117992 -4.852821 1.580055 -0.879591 -28.125590 -6.592752 2.524229 20.912020 9.333997 17.306282 15.149024 0.000000 0.000000 0.000000 -2.620030 0.239996 -1.513381 9.210179 2.543578 57.520584 -8.876983 -21.024304 2.906861 0.000000 0.000000 0.000000 -11.215643 1.602867 16.820240 12.531827 -3.385172 -19.707815 2.055279 16.531731 25.679129 -3.153299 4.693928 -20.658399 0.000000 0.000000 0.000000 -25.323934 6.309504 -7.552524 -34.624356 -0.379925 -5.067917 -29.806283 -69.700403 23.342042 0.000000 0.000000 0.000000 19.744225 9.671720 5.890679 43.662113 10.947654 -3.135597 22.846239 63.955164 19.396418 0.000000 0.000000 0.000000 
-0.612107 0.865205 2.538234 0.630202 -12.335289 -11.380570 2.113950 -1.029940 -21.723003 -7.379228 3.467364 30.361226 5.576645 11.645283 2.214077 0.000000 0.000000 0.000000 -6.112044 0.478424 -6.358588 15.187799 -2.815038 68.395188 -11.173039 -26.227196 2.157518 0.000000 0.000000 0.000000 -12.352419 1.682393 19.621985 14.525818 -4.572038 -16.964046 -1.152341 12.664693 25.600269 0.047093 2.438945 -20.437859 0.000000 0.000000 0.000000 -28.521810 5.127282 -7.118404 -31.688572 -9.675687 -2.616813 -14.014126 -70.031673 12.366632 0.000000 0.000000 0.000000 23.005317 8.626778 5.263413 43.344700 4.883365 -5.206122 21.261008 56.134078 15.123944 0.000000 0.000000 0.000000 
-0.659886 0.845085 2.683156 -1.129439 -8.765821 -15.299157 2.146332 -0.774371 -13.057185 -3.613763 2.036443 41.622401 6.097310 10.693942 -14.248689 0.000000 0.000000 0.000000 -8.439757 0.729347 -16.762315 16.133511 -5.393408 68.000991 -9.607953 -24.553926 -20.494163 0.000000 0.000000 0.000000 -11.286535 1.226126 20.692122 15.026539 -5.112948 -15.831251 -3.904418 7.147556 25.814694 -1.782880 3.046280 -19.582875 0.000000 0.000000 0.000000 -32.101927 1.986208 -4.310806 -28.313117 -19.542297 -0.808399 -2.792893 -72.335594 5.215441 0.000000 0.000000 0.000000 24.457694 5.892195 2.627205 40.761925 -6.044475 -8.068019 20.216605 48.724540 11.435246 0.000000 0.000000 0.000000 
-0.706071 0.838333 2.818702 -3.654656 -6.196119 -15.352030 3.113125 -0.202536 -4.981666 2.713437 -2.130370 45.858301 6.530964 10.174867 -19.594636 0.000000 0.000000 0.000000 -8.094679 1.129441 -25.179444 11.853249 -3.135865 52.250731 -7.958645 -17.652845 -14.861389 0.000000 0.000000 0.000000 -8.289213 0.437113 18.530787 17.025929 -6.008629 -14.622468 -7.273366 1.861230 25.020626 -2.907274 3.151871 -15.959437 0.000000 0.000000 0.000000 -30.533910 1.517143 -2.442094 -31.564651 -23.581802 -0.187850 -16.634255 -80.082184 18.829101 0.000000 0.000000 0.000000 23.037235 2.172141 -0.566087 41.050598 -15.059162 -10.569709 25.319815 47.639869 12.918667 0.000000 0.000000 0.000000 
